<svg width="130" height="30" viewBox="0 0 130 30" fill="none" xmlns="http://www.w3.org/2000/svg">
<path d="M8.80712 28.6631C7.27855 29.2568 5.8349 29.2568 4.56109 28.6631C3.20236 28.0694 2.18331 26.9667 1.50394 25.2704L1.33409 24.9311C0.909486 23.8285 0.65474 22.7259 0.73966 21.7081C0.824581 20.6903 1.07935 19.7573 1.67379 18.9939C2.26824 18.2306 2.9476 17.6369 3.79681 17.2976C5.24046 16.7039 6.59918 16.7039 7.78806 17.3824C8.97695 17.9761 9.91108 19.1636 10.6754 20.9447L11.0151 21.7081L3.45711 24.7615C3.96663 25.8641 4.64602 26.6275 5.49522 27.0516C6.34443 27.4757 7.27854 27.4757 8.21267 27.1364C8.89203 26.8819 9.40157 26.4578 9.74126 26.0338C10.0809 25.6097 10.3357 25.0159 10.5055 24.4222L12.0341 24.8463C11.7793 26.6275 10.6754 27.8997 8.80712 28.6631ZM4.47616 18.8243C3.71188 19.1636 3.20236 19.6725 2.86268 20.4358C2.60791 21.1992 2.60791 22.1322 2.86268 23.15L8.46745 20.8599L8.38252 20.6903C7.95792 19.7573 7.36347 19.0788 6.68411 18.7395C6.00474 18.485 5.24045 18.485 4.47616 18.8243Z" fill="white"/>
<path d="M13.3081 13.9897L13.8177 15.4316C14.3272 14.0745 15.2613 13.1415 16.7049 12.7175C19.0827 11.9541 20.7811 12.8871 21.7153 15.6012L24.178 23.15L22.2248 23.7437L19.7621 16.195C19.5073 15.3468 19.0827 14.8379 18.5732 14.5834C18.0637 14.329 17.4692 14.329 16.62 14.5834C16.0256 14.7531 15.5161 15.1772 15.0915 15.6012C14.7518 16.1101 14.497 16.619 14.4121 17.2976L17.0446 25.4401L15.0915 26.0338L11.355 14.5834L13.3081 13.9897Z" fill="white"/>
<path d="M43.3697 10.9363C43.7094 12.463 43.7094 13.8201 43.4546 15.0075C43.1999 16.1949 42.6904 17.2128 41.9261 17.9761L45.238 19.6725L44.0491 21.284L40.1427 19.2484C39.6332 19.5028 39.1237 19.6725 38.5293 19.7573C37.2554 20.0117 36.1515 19.9269 35.0475 19.5028C33.9435 19.0787 33.0094 18.3154 32.2451 17.2976C31.4808 16.2798 30.9713 15.0075 30.6316 13.4808L30.3769 12.3782C30.0372 10.8515 30.0372 9.49438 30.3769 8.22212C30.7165 6.94986 31.2261 5.93207 32.0753 5.08389C32.9245 4.23572 33.9435 3.72682 35.2173 3.47237C36.4912 3.21792 37.68 3.30273 38.784 3.72681C39.888 4.1509 40.8221 4.91426 41.5864 5.93207C42.3507 6.94987 42.8602 8.30696 43.1999 9.83367L43.3697 10.9363ZM41.0769 10.3425C40.7372 8.47657 40.0578 7.1195 39.1237 6.27133C38.1896 5.42316 37.0007 5.08388 35.642 5.33834C34.3681 5.59279 33.3491 6.27133 32.8396 7.45877C32.2451 8.64621 32.1602 10.0881 32.4999 11.8693L32.7546 13.0567C33.0943 14.8379 33.7737 16.1949 34.7078 17.1279C35.6419 18.0609 36.8308 18.3154 38.1896 18.0609C39.5483 17.8065 40.4824 17.1279 41.0769 15.9405C41.5864 14.8379 41.7562 13.3112 41.4165 11.53L41.0769 10.3425Z" fill="white"/>
<path d="M54.9192 16.0253C54.2399 17.0431 53.1359 17.6368 51.6073 17.8065C50.3335 17.9761 49.3145 17.7217 48.5502 17.0431C47.7859 16.3646 47.3613 15.3468 47.1915 13.9049L46.3423 6.10168L48.3804 5.84724L49.2296 13.5656C49.3994 15.3468 50.2486 16.195 51.7772 16.0253C53.3058 15.8557 54.3248 15.1771 54.6645 13.9049L53.7304 5.25351L55.7685 4.99907L57.0423 16.9583L55.0891 17.2128L54.9192 16.0253Z" fill="white"/>
<path d="M65.0246 16.8735C63.4111 16.9583 62.0524 16.4494 61.0334 15.4316C60.0143 14.4138 59.4199 12.9719 59.335 11.1907V10.8515C59.335 9.66402 59.5048 8.56141 59.9294 7.62842C60.354 6.69543 60.9484 5.93206 61.7977 5.33834C62.5619 4.74462 63.4961 4.49017 64.4302 4.49017C65.9588 4.40535 67.2326 4.91426 68.0818 5.93207C69.0159 6.94988 69.4405 8.39178 69.5254 10.2578V11.1059L61.3731 11.3604C61.458 12.5478 61.7976 13.4808 62.477 14.1593C63.1564 14.8379 64.0056 15.1771 65.0246 15.1771C65.7889 15.1771 66.3834 15.0075 66.8929 14.6682C67.4024 14.329 67.827 13.9897 68.1667 13.4808L69.4405 14.4138C68.5064 15.9405 66.9778 16.7887 65.0246 16.8735ZM64.3453 6.10169C63.4961 6.10169 62.8167 6.44097 62.3072 7.11951C61.7977 7.79805 61.458 8.5614 61.3731 9.66403L67.4024 9.49438V9.32476C67.3175 8.30695 66.9778 7.45877 66.4683 6.94986C65.9588 6.44096 65.1945 6.10169 64.3453 6.10169Z" fill="white"/>
<path d="M78.0173 6.52577C77.6776 6.44096 77.3379 6.44098 76.9982 6.44098C75.6395 6.44098 74.7054 6.94988 74.1959 8.0525L74.026 16.5342L71.9879 16.4494L72.2427 4.49016L74.2808 4.57499V5.93207C74.9601 4.91426 75.9792 4.40534 77.1681 4.40534C77.5927 4.40534 77.8475 4.49017 78.1022 4.57499L78.0173 6.52577Z" fill="white"/>
<path d="M84.3018 17.3824C82.6883 17.2128 81.4145 16.619 80.4803 15.4316C79.5462 14.2441 79.1216 12.8023 79.2914 11.0211V10.6818C79.3764 9.4944 79.7161 8.47658 80.2256 7.54359C80.7351 6.6106 81.4145 5.93207 82.3486 5.50798C83.1978 5.08389 84.1319 4.82943 85.066 4.91425C86.5946 5.08388 87.7835 5.67761 88.5478 6.78024C89.3121 7.88286 89.6518 9.40956 89.4819 11.2755L89.397 12.1237L81.2446 11.4452C81.1597 12.6326 81.4144 13.5656 82.0089 14.4138C82.6033 15.1771 83.4526 15.6012 84.4716 15.6861C85.2359 15.7709 85.8303 15.686 86.3399 15.4316C86.8494 15.1771 87.3589 14.8379 87.7835 14.329L88.9724 15.4316C87.8684 16.8735 86.3399 17.552 84.3018 17.3824ZM84.9811 6.61059C84.1319 6.52578 83.4525 6.78022 82.8581 7.37394C82.2637 7.96767 81.839 8.73104 81.5843 9.83367L87.6137 10.3425V10.1729C87.6137 9.15512 87.4438 8.30696 86.9343 7.71323C86.5097 7.0347 85.8303 6.69541 84.9811 6.61059ZM86.5097 0.249298L88.9724 0.418943L85.7454 3.38755L84.1319 3.2179L86.5097 0.249298Z" fill="white"/>
<path d="M96.1903 3.55717L95.7657 6.44098L97.9737 6.78025L97.7189 8.39177L95.511 8.05251L94.4919 15.4316C94.407 15.9405 94.4919 16.2798 94.6618 16.5342C94.8316 16.7887 95.1713 16.9583 95.5959 17.0431C95.8506 17.0431 96.1903 17.0431 96.6149 17.0431L96.3602 18.6547C95.7657 18.7395 95.2562 18.7395 94.7467 18.6547C93.8125 18.485 93.2181 18.1457 92.7935 17.552C92.3689 16.9583 92.284 16.1101 92.4538 15.0923L93.4728 7.71324L91.2649 7.37395L91.5197 5.76243L93.6427 6.10169L94.0673 3.21791L96.1903 3.55717Z" fill="white"/>
<path d="M105.871 20.4358C105.786 20.1814 105.786 19.7573 105.871 19.1636C104.767 19.9269 103.494 20.1814 102.22 19.9269C101.031 19.6725 100.182 19.1636 99.5873 18.3154C98.9928 17.4672 98.738 16.619 98.9928 15.6012C99.2476 14.4138 99.927 13.4808 100.946 13.0567C102.05 12.5478 103.409 12.463 105.107 12.8871L107.06 13.3112L107.23 12.3782C107.4 11.6996 107.315 11.1059 106.975 10.597C106.636 10.0881 106.041 9.74883 105.277 9.5792C104.598 9.40956 103.918 9.49439 103.324 9.74884C102.729 10.0033 102.39 10.4274 102.305 10.9363L100.267 10.5122C100.352 9.91847 100.691 9.40957 101.201 8.90067C101.71 8.47658 102.39 8.13731 103.154 7.96767C103.918 7.79804 104.767 7.79804 105.617 7.96767C106.975 8.22212 107.994 8.81585 108.589 9.66402C109.183 10.5122 109.438 11.53 109.183 12.7174L108.079 18.1457C107.825 19.2484 107.825 20.0965 107.994 20.7751V20.9447L105.871 20.4358ZM102.814 18.2306C103.409 18.4002 104.088 18.3154 104.683 18.1457C105.277 17.9761 105.786 17.6368 106.211 17.1279L106.721 14.7531L105.107 14.4138C102.644 13.9049 101.286 14.4138 100.946 15.8557C100.776 16.4494 100.946 17.0431 101.286 17.4672C101.625 17.8065 102.135 18.0609 102.814 18.2306Z" fill="white"/>
<path d="M118.864 13.3112C118.609 13.1415 118.27 13.0567 117.93 12.9719C116.656 12.6326 115.637 12.8871 114.788 13.9049L112.495 22.1322L110.542 21.6233L113.684 10.0881L115.637 10.597L115.298 11.9541C116.232 11.1059 117.251 10.8514 118.524 11.1907C118.949 11.2755 119.204 11.4452 119.374 11.6148L118.864 13.3112Z" fill="white"/>
<path d="M119.204 17.552C119.629 16.4494 120.138 15.5164 120.903 14.7531C121.667 13.9897 122.516 13.5656 123.45 13.3112C124.384 13.1415 125.403 13.1415 126.338 13.4808C127.866 13.9897 128.97 15.0075 129.565 16.3646C130.159 17.7217 130.159 19.3332 129.48 21.1144L129.395 21.284C128.97 22.3866 128.461 23.3196 127.696 23.9981C126.932 24.7615 126.168 25.1856 125.149 25.44C124.215 25.6945 123.195 25.6097 122.176 25.2704C120.648 24.7615 119.544 23.7437 118.949 22.3866C118.355 21.0295 118.355 19.418 118.949 17.6368L119.204 17.552ZM121.072 18.485C120.648 19.7573 120.563 20.8599 120.903 21.7929C121.242 22.7259 121.837 23.4044 122.856 23.7437C123.875 24.083 124.724 23.9982 125.573 23.4044C126.422 22.8107 127.102 21.8777 127.526 20.4358C127.951 19.1636 128.036 18.0609 127.696 17.1279C127.357 16.1101 126.762 15.5164 125.743 15.1771C124.809 14.8379 123.875 14.9227 123.026 15.5164C122.176 16.0253 121.582 17.0431 121.072 18.485Z" fill="white"/>
</svg>
