<svg width="246" height="55" viewBox="0 0 246 55" fill="none" xmlns="http://www.w3.org/2000/svg">
<path d="M11.4643 1.61152L8.32223 15.4367L20.1262 7.54873L22.4191 9.07543L13.2476 22.3918L11.4643 21.2043L15.031 16.0305L19.0222 10.5173L7.21826 18.2357L5.94445 17.3875L9.00159 3.64713L5.35 9.3299L1.78333 14.5038L0 13.3163L9.17143 0L11.4643 1.61152Z" fill="white"/>
<path d="M23.9476 28.2442C23.9476 27.9897 24.0326 27.5656 24.2873 26.9719C23.0135 27.396 21.7397 27.3112 20.5508 26.7175C19.5318 26.1237 18.7675 25.4452 18.4278 24.4274C18.0881 23.4944 18.173 22.5614 18.5976 21.6284C19.1921 20.5258 20.0413 19.9321 21.2302 19.7624C22.4191 19.5928 23.7778 19.9321 25.2215 20.6954L27.0048 21.6284L27.4294 20.7802C27.7691 20.1865 27.854 19.508 27.6842 18.9991C27.5143 18.4054 27.0048 17.8964 26.3254 17.5572C25.6461 17.2179 25.0516 17.0483 24.4572 17.2179C23.8627 17.3027 23.4381 17.5572 23.1834 18.0661L21.4 17.1331C21.6548 16.6242 22.1643 16.2001 22.7588 15.8608C23.3532 15.5216 24.1175 15.4367 24.8818 15.5216C25.6461 15.6064 26.4953 15.776 27.2595 16.2001C28.4484 16.8787 29.2976 17.642 29.6373 18.6598C29.977 19.6776 29.8921 20.6954 29.3826 21.7132L26.75 26.5478C26.2405 27.4808 25.9857 28.329 25.9008 29.0923L25.8159 29.262L23.9476 28.2442ZM21.7397 25.1907C22.3342 25.53 22.9286 25.6148 23.608 25.6148C24.2873 25.6148 24.8818 25.4452 25.3064 25.0211L26.4953 22.8159L25.0516 22.0525C22.8437 20.8651 21.4 20.9499 20.7207 22.2221C20.381 22.8158 20.381 23.3248 20.5508 23.8337C20.7207 24.5122 21.1453 24.9363 21.7397 25.1907Z" fill="white"/>
<path d="M38.6387 23.8337C38.3839 23.664 38.0442 23.4944 37.7895 23.3248C36.6006 22.731 35.4966 22.9007 34.5625 23.7488L30.9958 31.4672L29.1276 30.619L34.053 19.6776L35.8363 20.5258L35.3268 21.798C36.3458 21.1195 37.4498 21.0347 38.6387 21.5436C38.9784 21.7132 39.2331 21.8829 39.403 22.0525L38.6387 23.8337Z" fill="white"/>
<path d="M41.6112 34.4358C42.2906 34.6903 42.9699 34.6903 43.6493 34.5206C44.3287 34.2662 44.8382 33.9269 45.093 33.3332L46.8763 34.0117C46.6215 34.6055 46.112 35.1992 45.5176 35.6233C44.9231 36.0473 44.1588 36.3018 43.3096 36.3866C42.4604 36.4714 41.6961 36.3866 40.9318 36.0473C39.4033 35.4536 38.3842 34.4358 37.8747 33.0787C37.3652 31.7217 37.4501 30.1101 38.1295 28.4138L38.2144 28.0745C38.639 26.9719 39.2334 26.1237 39.9128 25.4452C40.6771 24.7666 41.4414 24.3426 42.3755 24.1729C43.3096 24.0033 44.2438 24.0881 45.2628 24.5122C46.5366 25.0211 47.3858 25.7844 47.9803 26.8871C48.4898 27.9897 48.5747 29.0923 48.1501 30.3646L46.3668 29.686C46.6215 28.9227 46.5366 28.2442 46.2818 27.5656C45.9422 26.8871 45.4326 26.463 44.7533 26.1237C43.8191 25.7844 42.885 25.7845 42.1207 26.2934C41.2715 26.8023 40.6771 27.6504 40.1676 29.0075L39.9977 29.3468C39.4882 30.619 39.4033 31.7217 39.658 32.6547C39.9977 33.418 40.5922 34.0966 41.6112 34.4358Z" fill="white"/>
<path d="M55.538 40.7971C55.538 40.5427 55.538 40.1186 55.623 39.5249C54.4341 40.2034 53.1603 40.2882 51.8864 39.8641C50.7825 39.5249 49.9333 38.9311 49.4237 37.9981C48.9142 37.15 48.8293 36.217 49.0841 35.1992C49.4237 34.0117 50.188 33.2484 51.292 32.8243C52.396 32.485 53.7547 32.5698 55.4531 33.0787L57.3214 33.6724L57.5761 32.7395C57.8309 32.0609 57.746 31.4672 57.4912 30.8735C57.2364 30.3646 56.642 29.9405 55.8777 29.6861C55.1984 29.4316 54.519 29.4316 53.9245 29.6861C53.3301 29.8557 52.9904 30.2798 52.8206 30.7038L50.8674 30.1101C51.0372 29.5164 51.4618 29.0923 51.9714 28.6682C52.5658 28.2441 53.2452 27.9897 54.0095 27.9049C54.7737 27.8201 55.623 27.9049 56.4722 28.1593C57.8309 28.5834 58.6801 29.262 59.2745 30.1101C59.7841 31.0431 59.869 32.0609 59.5293 33.1636L57.8309 38.4222C57.4912 39.44 57.3214 40.373 57.4063 41.0516L57.3214 41.2212L55.538 40.7971ZM52.7356 38.2526C53.3301 38.4222 54.0095 38.507 54.6039 38.3374C55.2833 38.1678 55.7928 37.9133 56.2174 37.4892L56.9817 35.1144L55.4531 34.6054C53.0753 33.8421 51.6317 34.1814 51.2071 35.5384C51.0372 36.1322 51.0372 36.7259 51.3769 37.15C51.6317 37.7437 52.1412 38.083 52.7356 38.2526Z" fill="white"/>
<path d="M68.5308 41.0516C68.7007 40.5426 68.6157 40.0337 68.2761 39.6096C67.9364 39.1856 67.3419 38.7615 66.3229 38.2526C65.3038 37.7437 64.6245 37.3196 64.1149 36.8955C63.6054 36.4714 63.2657 35.9625 63.0959 35.4536C62.9261 34.9447 62.9261 34.4358 63.0959 33.8421C63.3507 32.9091 63.9451 32.2306 64.9641 31.7217C65.9832 31.2976 67.0872 31.2127 68.2761 31.552C69.6348 31.8913 70.5689 32.485 71.2483 33.418C71.9276 34.351 72.0975 35.284 71.8427 36.3866L69.8046 35.8777C69.9745 35.3688 69.8046 34.7751 69.4649 34.2662C69.1253 33.7573 68.6157 33.418 67.8515 33.2484C67.0872 33.0787 66.4927 33.0787 66.0681 33.2484C65.5586 33.418 65.3038 33.8421 65.134 34.351C65.0491 34.8599 65.134 35.1992 65.3888 35.6233C65.7284 35.9625 66.3229 36.3866 67.257 36.8955C68.1911 37.4044 68.9554 37.8285 69.4649 38.3374C69.9745 38.8463 70.3991 39.2704 70.5689 39.7793C70.7388 40.2882 70.7388 40.8819 70.5689 41.4756C70.3141 42.4934 69.6348 43.2568 68.7007 43.6809C67.7665 44.105 66.5776 44.105 65.2189 43.7657C64.2848 43.5113 63.5205 43.172 62.8411 42.6631C62.2467 42.1542 61.7372 41.5604 61.4824 40.8819C61.2276 40.2034 61.2276 39.5248 61.3975 38.8463L63.3507 39.3552C63.1808 40.0337 63.3507 40.6275 63.7753 41.1364C64.1999 41.6453 64.7943 41.9845 65.5586 42.239C66.3229 42.4086 66.9173 42.4086 67.5118 42.239C68.1062 42.0694 68.361 41.5605 68.5308 41.0516Z" fill="white"/>
<path d="M72.0976 48.5155L71.1635 47.4977C72.0127 46.7343 72.6072 45.8013 72.8619 44.7835L73.2865 43.0023L75.2397 43.4264L74.9 45.038C74.7302 45.8013 74.3905 46.4799 73.881 47.0736C73.2865 47.6673 72.6921 48.1762 72.0976 48.5155Z" fill="white"/>
<path d="M90.8652 48.7699C90.7803 48.5155 90.7803 48.0914 90.7803 47.4977C89.6763 48.3458 88.4875 48.6003 87.1287 48.4307C85.9398 48.261 85.0906 47.7521 84.4113 46.9888C83.7319 46.2254 83.5621 45.2924 83.7319 44.2746C83.9017 43.0023 84.5811 42.1542 85.6002 41.6453C86.6192 41.1364 88.0629 40.9667 89.7613 41.306L91.7144 41.6453L91.8843 40.7123C91.9692 40.0338 91.8843 39.44 91.5446 38.9311C91.2049 38.4222 90.6105 38.1678 89.7613 37.9981C88.997 37.9133 88.4025 37.9981 87.893 38.2526C87.3835 38.507 87.0438 38.9311 86.9589 39.44L84.9208 39.1008C85.0057 38.507 85.3454 37.9981 85.8549 37.4892C86.3644 36.9803 87.0438 36.6411 87.8081 36.4714C88.5724 36.3018 89.4216 36.217 90.2708 36.3866C91.6295 36.6411 92.6486 37.15 93.3279 37.9133C94.0073 38.7615 94.2621 39.6945 94.0922 40.9667L93.243 46.395C93.0732 47.4977 93.0732 48.3458 93.243 49.0244V49.194L90.8652 48.7699ZM87.8081 46.6495C88.4025 46.7343 89.0819 46.6495 89.6763 46.4799C90.2708 46.2254 90.7803 45.8861 91.12 45.3772L91.5446 42.9175L89.9311 42.6631C87.4684 42.239 86.1097 42.7479 85.8549 44.2746C85.77 44.8683 85.8549 45.4621 86.2795 45.8862C86.6192 46.3102 87.1287 46.5647 87.8081 46.6495Z" fill="white"/>
<path d="M103.349 40.1186C103.009 40.0338 102.754 39.949 102.33 39.949C100.971 39.7793 100.037 40.2034 99.3574 41.306L98.3383 49.7877L96.3002 49.5333L97.7439 37.6589L99.6971 37.9133L99.5272 39.2704C100.292 38.2526 101.311 37.9133 102.584 37.9981C103.009 38.083 103.264 38.1678 103.434 38.2526L103.349 40.1186Z" fill="white"/>
<path d="M109.123 35.9625L108.868 38.8463L111.076 39.016L110.906 40.6275L108.699 40.4578L108.019 47.8369C107.934 48.3458 108.019 48.6851 108.189 48.9396C108.359 49.194 108.699 49.3636 109.208 49.3636C109.463 49.3636 109.802 49.3637 110.227 49.2788L110.057 50.8904C109.548 50.9752 108.953 50.9752 108.444 50.9752C107.51 50.8904 106.83 50.5511 106.491 49.9574C106.066 49.3637 105.896 48.5155 105.981 47.5825L106.66 40.2034L104.452 40.0337L104.622 38.4222L106.83 38.5919L107.085 35.7081L109.123 35.9625Z" fill="white"/>
<path d="M114.983 51.3145L112.945 51.1448L113.794 39.1856L115.832 39.3552L114.983 51.3145ZM113.794 36.0473C113.794 35.7081 113.964 35.4536 114.133 35.1992C114.388 34.9447 114.643 34.8599 115.068 34.9447C115.492 35.0295 115.747 35.1143 115.917 35.3688C116.087 35.6232 116.171 35.8777 116.171 36.217C116.171 36.5562 116.002 36.8107 115.832 37.0651C115.577 37.2348 115.322 37.4044 114.898 37.3196C114.473 37.2348 114.218 37.15 114.048 36.8955C113.879 36.6411 113.794 36.3866 113.794 36.0473Z" fill="white"/>
<path d="M125.853 48.6851C125.853 48.0914 125.683 47.6673 125.258 47.4129C124.834 47.0736 124.154 46.8191 123.135 46.5647C122.116 46.3102 121.267 45.971 120.672 45.7165C120.078 45.3773 119.653 45.038 119.399 44.5291C119.144 44.105 118.974 43.5961 119.059 43.0024C119.059 41.9845 119.568 41.2212 120.418 40.5427C121.267 39.8641 122.371 39.6097 123.645 39.6097C125.003 39.6945 126.107 40.0338 126.957 40.7971C127.806 41.5605 128.145 42.4086 128.145 43.5113L126.107 43.4264C126.107 42.8327 125.937 42.4087 125.428 41.9846C124.918 41.5605 124.409 41.306 123.645 41.306C122.88 41.306 122.286 41.3908 121.861 41.7301C121.437 42.0694 121.182 42.4935 121.182 43.0024C121.182 43.5113 121.352 43.8505 121.691 44.105C122.116 44.3594 122.795 44.6139 123.814 44.8683C124.834 45.1228 125.683 45.4621 126.277 45.8013C126.872 46.1406 127.381 46.5647 127.636 46.9888C127.891 47.4129 128.061 48.0066 128.061 48.6003C128.061 49.7029 127.551 50.5511 126.702 51.1448C125.853 51.7385 124.664 52.0778 123.305 51.993C122.371 51.993 121.522 51.7386 120.757 51.3993C119.993 51.06 119.484 50.5511 119.059 49.8726C118.634 49.2788 118.464 48.6003 118.464 47.837L120.503 47.9218C120.503 48.6003 120.757 49.194 121.267 49.6181C121.776 50.0422 122.456 50.2966 123.305 50.2966C124.069 50.2966 124.749 50.2118 125.173 49.8726C125.598 49.5333 125.853 49.194 125.853 48.6851Z" fill="white"/>
<path d="M133.75 37.0651V39.9489H135.958V41.5605H133.75V49.0244C133.75 49.5333 133.835 49.8726 134.005 50.127C134.175 50.3815 134.514 50.4663 135.024 50.4663C135.279 50.4663 135.618 50.4663 136.043 50.2966V51.993C135.533 52.1626 134.939 52.2474 134.429 52.2474C133.495 52.2474 132.816 51.993 132.391 51.3993C131.967 50.8055 131.712 50.0422 131.712 49.0244V41.5605H129.504V39.9489H131.712V37.0651H133.75Z" fill="white"/>
<path d="M146.658 51.4841C146.488 51.2296 146.403 50.8055 146.318 50.2118C145.469 51.2296 144.365 51.8234 143.006 51.9082C141.818 51.993 140.799 51.7385 140.034 51.1448C139.27 50.5511 138.76 49.7029 138.676 48.6851C138.591 47.4129 139.015 46.3951 139.864 45.7165C140.799 44.9532 142.072 44.5291 143.771 44.3594L145.724 44.1898L145.639 43.2568C145.554 42.5783 145.299 41.9846 144.875 41.5605C144.45 41.1364 143.771 40.9668 142.922 41.0516C142.157 41.1364 141.563 41.306 141.138 41.7301C140.629 42.1542 140.459 42.5783 140.459 43.0872L138.421 43.2568C138.336 42.6631 138.591 42.0694 138.93 41.4757C139.355 40.8819 139.864 40.373 140.544 40.0338C141.223 39.6945 142.072 39.44 142.922 39.3552C144.28 39.2704 145.384 39.5249 146.233 40.1186C147.083 40.7123 147.507 41.6453 147.677 42.9176L148.102 48.4307C148.187 49.5333 148.357 50.3815 148.696 51.06V51.2296L146.658 51.4841ZM143.091 50.127C143.771 50.0422 144.365 49.8726 144.875 49.5333C145.469 49.194 145.809 48.6851 146.064 48.1762L145.894 45.7165L144.28 45.8013C141.733 45.971 140.544 46.8191 140.714 48.261C140.799 48.9396 140.968 49.3637 141.478 49.7029C141.903 50.0422 142.412 50.2118 143.091 50.127Z" fill="white"/>
<path d="M161.944 46.0558L162.878 36.6411L165.001 36.217L163.048 50.7207C162.708 52.8412 161.774 54.0286 160.16 54.3679L159.736 54.4527H158.971L158.632 52.8412L159.226 52.7563C159.905 52.5867 160.415 52.3323 160.755 51.993C161.094 51.6537 161.264 51.06 161.349 50.2966L161.519 49.0244L154.895 38.2526L157.103 37.8285L161.944 46.0558Z" fill="white"/>
<path d="M174.257 30.7038L175.107 33.5028L177.23 32.9091L177.654 34.4358L175.531 35.0295L177.569 42.1542C177.739 42.5783 177.909 42.9175 178.164 43.0872C178.419 43.2568 178.758 43.2568 179.268 43.172C179.523 43.0872 179.777 43.0024 180.202 42.7479L180.627 44.3594C180.117 44.6139 179.692 44.8683 179.183 45.038C178.334 45.2924 177.569 45.2076 176.975 44.7835C176.38 44.3594 175.956 43.6809 175.616 42.7479L173.578 35.6233L171.455 36.217L171.03 34.6903L173.153 34.0965L172.304 31.2976L174.257 30.7038Z" fill="white"/>
<path d="M180.711 37.9133C180.372 36.8107 180.202 35.7081 180.372 34.6903C180.541 33.6725 180.881 32.7395 181.476 31.9761C182.07 31.2128 182.919 30.7039 183.938 30.3646C185.467 29.8557 186.91 29.9405 188.269 30.7039C189.628 31.4672 190.562 32.7395 191.156 34.5206L191.241 34.6903C191.581 35.7929 191.751 36.8955 191.581 37.9133C191.411 38.9311 191.072 39.8641 190.477 40.5427C189.883 41.306 189.033 41.8149 188.014 42.1542C186.486 42.6631 185.042 42.5783 183.683 41.8149C182.325 41.0516 181.391 39.7793 180.796 38.083L180.711 37.9133ZM182.749 37.4892C183.174 38.7615 183.768 39.6945 184.618 40.2034C185.467 40.7123 186.401 40.8819 187.335 40.5427C188.354 40.2034 188.949 39.5249 189.288 38.5919C189.628 37.6589 189.543 36.4714 189.033 35.0295C188.609 33.7573 188.014 32.9091 187.08 32.3154C186.231 31.7217 185.297 31.6368 184.363 31.9761C183.429 32.3154 182.749 32.9091 182.41 33.9269C182.24 34.9447 182.325 36.1322 182.749 37.4892Z" fill="white"/>
<path d="M197.78 27.5656C197.441 27.6504 197.186 27.7352 196.846 27.8201C195.572 28.329 194.978 29.1771 194.893 30.3646L197.95 38.3374L195.997 39.1008L191.666 27.9049L193.534 27.2264L194.044 28.4986C194.299 27.2264 194.978 26.3782 196.167 25.9541C196.507 25.7845 196.846 25.7844 197.101 25.7844L197.78 27.5656Z" fill="white"/>
<path d="M200.753 24.3425L201.432 25.6996C201.857 24.2577 202.706 23.2399 204.064 22.731C206.442 21.7132 208.141 22.5614 209.245 25.1907L212.302 32.485L210.434 33.2484L207.291 25.9541C206.952 25.1907 206.527 24.6818 206.018 24.4274C205.508 24.1729 204.829 24.2577 204.064 24.597C203.47 24.8515 202.961 25.2755 202.621 25.7845C202.281 26.2934 202.111 26.8871 202.111 27.5656L205.423 35.4536L203.555 36.217L198.884 25.1907L200.753 24.3425Z" fill="white"/>
<path d="M220.284 29.0923C218.841 29.7709 217.397 29.8557 216.038 29.3468C214.679 28.8379 213.575 27.7352 212.811 26.1237L212.641 25.7844C212.132 24.6818 211.877 23.664 211.877 22.6462C211.877 21.6284 212.132 20.6954 212.641 19.8472C213.151 18.9991 213.83 18.4053 214.679 17.9812C216.123 17.3027 217.397 17.3027 218.671 17.8116C219.944 18.3205 220.879 19.508 221.728 21.2891L222.068 22.0525L214.679 25.53C215.189 26.5478 215.953 27.3112 216.802 27.6504C217.737 27.9897 218.671 27.9897 219.52 27.5656C220.199 27.2263 220.709 26.8871 220.964 26.3782C221.303 25.8693 221.558 25.3604 221.643 24.7666L223.171 25.1059C223.171 26.8871 222.068 28.2441 220.284 29.0923ZM215.444 19.4232C214.679 19.7624 214.17 20.3561 213.915 21.1195C213.66 21.8829 213.745 22.8159 214.085 23.8337L219.52 21.2891L219.435 21.1195C218.925 20.1865 218.331 19.5928 217.652 19.2535C216.972 19.0839 216.208 19.0839 215.444 19.4232Z" fill="white"/>
<path d="M223.766 20.441C223.257 19.4232 222.917 18.3205 222.917 17.3027C222.917 16.2849 223.087 15.352 223.596 14.5038C224.106 13.6556 224.785 12.9771 225.719 12.553C227.163 11.7896 228.607 11.7048 230.05 12.2137C231.494 12.7226 232.598 13.8252 233.447 15.5216L233.532 15.6912C234.042 16.709 234.381 17.7268 234.381 18.8294C234.381 19.9321 234.211 20.7803 233.702 21.6284C233.192 22.4766 232.513 23.1551 231.494 23.664C230.05 24.4274 228.607 24.5122 227.163 24.0033C225.719 23.4944 224.615 22.3918 223.766 20.6954V20.441ZM225.634 19.6776C226.229 20.8651 226.993 21.6284 227.927 22.0525C228.861 22.4766 229.796 22.4766 230.645 21.9677C231.579 21.4588 232.088 20.7802 232.258 19.7624C232.428 18.7446 232.173 17.5572 231.494 16.2849C230.9 15.0975 230.135 14.3341 229.201 13.91C228.267 13.486 227.333 13.486 226.399 13.9949C225.465 14.5038 224.955 15.1823 224.785 16.2001C224.7 17.1331 224.955 18.3205 225.634 19.6776Z" fill="white"/>
<path d="M243.467 12.977C243.213 12.4681 242.788 12.2137 242.279 12.2137C241.769 12.1289 241.005 12.2985 239.986 12.6378C238.967 12.977 238.117 13.1467 237.438 13.1467C236.759 13.1467 236.164 13.0619 235.74 12.8922C235.23 12.6378 234.89 12.2985 234.551 11.7896C234.041 10.9414 234.041 10.0085 234.381 8.99065C234.721 7.97284 235.485 7.12464 236.589 6.53092C237.778 5.85239 238.882 5.59794 239.986 5.76757C241.09 5.93721 241.854 6.53093 242.448 7.46392L240.665 8.48174C240.41 7.97283 239.901 7.71838 239.306 7.54874C238.712 7.46392 238.033 7.54874 237.438 7.88801C236.759 8.22727 236.334 8.73618 236.164 9.16026C235.994 9.66917 235.994 10.0933 236.249 10.6022C236.504 11.0263 236.844 11.2807 237.353 11.2807C237.863 11.2807 238.542 11.1959 239.561 10.8566C240.58 10.5173 241.429 10.3477 242.109 10.3477C242.788 10.2629 243.383 10.4325 243.892 10.6022C244.402 10.8566 244.826 11.1959 245.081 11.7896C245.59 12.7226 245.675 13.6556 245.251 14.6734C244.826 15.6912 244.062 16.5394 242.873 17.2179C242.024 17.7268 241.259 17.9813 240.41 18.0661C239.561 18.1509 238.882 17.9813 238.202 17.7268C237.523 17.4724 237.013 16.9635 236.674 16.3697L238.457 15.3519C238.797 15.9457 239.306 16.2849 239.986 16.3697C240.665 16.4545 241.344 16.2849 242.024 15.8608C242.703 15.4367 243.128 15.0127 243.383 14.5038C243.722 13.91 243.722 13.4011 243.467 12.977Z" fill="white"/>
</svg>
